<svg width="38" height="38" viewBox="0 0 38 38" fill="none" xmlns="http://www.w3.org/2000/svg">
<path d="M19 0.419434C8.88002 0.419434 0.666687 8.63277 0.666687 18.7528C0.666687 28.8728 8.88002 37.0861 19 37.0861C29.12 37.0861 37.3334 28.8728 37.3334 18.7528C37.3334 8.63277 29.12 0.419434 19 0.419434ZM27.5067 12.8861C27.2317 15.7828 26.04 22.8228 25.435 26.0678C25.1784 27.4428 24.665 27.9011 24.1884 27.9561C23.125 28.0478 22.3184 27.2594 21.2917 26.5811C19.6784 25.5178 18.7617 24.8578 17.2034 23.8311C15.3884 22.6394 16.5617 21.9794 17.6067 20.9161C17.8817 20.6411 22.575 16.3694 22.6667 15.9844C22.6794 15.9261 22.6777 15.8656 22.6618 15.8081C22.6458 15.7506 22.616 15.6978 22.575 15.6544C22.465 15.5628 22.3184 15.5994 22.19 15.6178C22.025 15.6544 19.4584 17.3594 14.4534 20.7328C13.72 21.2278 13.06 21.4844 12.4734 21.4661C11.8134 21.4478 10.5667 21.0994 9.63169 20.7878C8.47669 20.4211 7.57835 20.2194 7.65169 19.5778C7.68835 19.2478 8.14669 18.9178 9.00835 18.5694C14.3617 16.2411 17.9184 14.7011 19.6967 13.9678C24.7934 11.8411 25.8384 11.4744 26.535 11.4744C26.6817 11.4744 27.03 11.5111 27.25 11.6944C27.4334 11.8411 27.4884 12.0428 27.5067 12.1894C27.4884 12.2994 27.525 12.6294 27.5067 12.8861Z" fill="#FE8235"/>
</svg>
