<svg width="40" height="40" viewBox="0 0 40 40" fill="none" xmlns="http://www.w3.org/2000/svg">
<path d="M20 0.50293C9.36953 0.50293 0.75 9.12246 0.75 19.7529C0.75 30.3834 9.36953 39.0029 20 39.0029C30.6305 39.0029 39.25 30.3834 39.25 19.7529C39.25 9.12246 30.6305 0.50293 20 0.50293ZM29.2512 15.0135C29.2641 15.2154 29.2641 15.426 29.2641 15.6322C29.2641 21.94 24.4602 29.2061 15.6816 29.2061C12.9746 29.2061 10.4652 28.4197 8.35117 27.0662C8.73789 27.1092 9.10742 27.1264 9.50274 27.1264C11.7371 27.1264 13.791 26.3701 15.4281 25.0896C13.3313 25.0467 11.5695 23.6717 10.968 21.7811C11.7027 21.8885 12.3645 21.8885 13.1207 21.6951C12.041 21.4758 11.0706 20.8894 10.3742 20.0356C9.67786 19.1818 9.29858 18.1133 9.30078 17.0115V16.9514C9.93242 17.308 10.6758 17.5271 11.4535 17.5572C10.7997 17.1215 10.2635 16.5312 9.89251 15.8386C9.52149 15.146 9.32709 14.3726 9.32656 13.5869C9.32656 12.6975 9.55859 11.8854 9.97539 11.1807C11.1738 12.6559 12.6692 13.8625 14.3645 14.722C16.0598 15.5815 17.9169 16.0746 19.8152 16.1693C19.1406 12.9252 21.5641 10.2998 24.4773 10.2998C25.8523 10.2998 27.0898 10.8756 27.9621 11.8037C29.0406 11.6018 30.0719 11.1979 30.9914 10.6564C30.6348 11.7607 29.8871 12.6932 28.8945 13.2818C29.857 13.1787 30.7852 12.9123 31.6445 12.5385C30.9957 13.4924 30.1836 14.3389 29.2512 15.0135Z" fill="#FE8235"/>
</svg>
